<mxfile host="app.diagrams.net" agent="Mozilla/5.0 (Windows NT 10.0; Win64; x64) AppleWebKit/537.36 (KHTML, like Gecko) Chrome/136.0.0.0 Safari/537.36" version="27.0.5">
  <diagram name="Page-1" id="D0AtcZKEkJ9JHZxq09BV">
    <mxGraphModel dx="1484" dy="739" grid="0" gridSize="10" guides="1" tooltips="1" connect="1" arrows="1" fold="1" page="0" pageScale="1" pageWidth="850" pageHeight="1100" math="0" shadow="0">
      <root>
        <mxCell id="0" />
        <mxCell id="1" parent="0" />
        <mxCell id="0CfHc-AP87rfUvwyW7n0-1" value="Manager" style="shape=umlActor;verticalLabelPosition=bottom;verticalAlign=top;html=1;outlineConnect=0;" vertex="1" parent="1">
          <mxGeometry x="353" y="50" width="30" height="60" as="geometry" />
        </mxCell>
        <mxCell id="0CfHc-AP87rfUvwyW7n0-2" value="Mngr_Home_Scr" style="html=1;whiteSpace=wrap;" vertex="1" parent="1">
          <mxGeometry x="473" y="90" width="100" height="30" as="geometry" />
        </mxCell>
        <mxCell id="0CfHc-AP87rfUvwyW7n0-3" value="Maint_Scr" style="html=1;whiteSpace=wrap;" vertex="1" parent="1">
          <mxGeometry x="593" y="90" width="100" height="30" as="geometry" />
        </mxCell>
        <mxCell id="0CfHc-AP87rfUvwyW7n0-4" value="Add_Maint_Scr" style="html=1;whiteSpace=wrap;" vertex="1" parent="1">
          <mxGeometry x="715.5" y="90" width="85" height="30" as="geometry" />
        </mxCell>
        <mxCell id="0CfHc-AP87rfUvwyW7n0-5" value="Manage_7" style="html=1;whiteSpace=wrap;" vertex="1" parent="1">
          <mxGeometry x="996" y="90" width="79" height="30" as="geometry" />
        </mxCell>
        <mxCell id="0CfHc-AP87rfUvwyW7n0-6" value="Maintenance" style="html=1;whiteSpace=wrap;" vertex="1" parent="1">
          <mxGeometry x="1123" y="90" width="70" height="30" as="geometry" />
        </mxCell>
        <mxCell id="0CfHc-AP87rfUvwyW7n0-7" value="Tenant_Notif_Scr" style="html=1;whiteSpace=wrap;" vertex="1" parent="1">
          <mxGeometry x="1203" y="90" width="111" height="30" as="geometry" />
        </mxCell>
        <mxCell id="0CfHc-AP87rfUvwyW7n0-9" value="" style="endArrow=none;dashed=1;html=1;dashPattern=1 3;strokeWidth=2;rounded=0;exitX=0.174;exitY=0.999;exitDx=0;exitDy=0;exitPerimeter=0;" edge="1" parent="1" source="0CfHc-AP87rfUvwyW7n0-83">
          <mxGeometry width="50" height="50" relative="1" as="geometry">
            <mxPoint x="373" y="960" as="sourcePoint" />
            <mxPoint x="373" y="130" as="targetPoint" />
          </mxGeometry>
        </mxCell>
        <mxCell id="0CfHc-AP87rfUvwyW7n0-10" value="" style="endArrow=none;dashed=1;html=1;dashPattern=1 3;strokeWidth=2;rounded=0;" edge="1" parent="1" source="0CfHc-AP87rfUvwyW7n0-18">
          <mxGeometry width="50" height="50" relative="1" as="geometry">
            <mxPoint x="523" y="510" as="sourcePoint" />
            <mxPoint x="523" y="120" as="targetPoint" />
          </mxGeometry>
        </mxCell>
        <mxCell id="0CfHc-AP87rfUvwyW7n0-17" value="" style="endArrow=none;dashed=1;html=1;dashPattern=1 3;strokeWidth=2;rounded=0;exitX=0.304;exitY=1.001;exitDx=0;exitDy=0;exitPerimeter=0;" edge="1" parent="1" source="0CfHc-AP87rfUvwyW7n0-83" target="0CfHc-AP87rfUvwyW7n0-18">
          <mxGeometry width="50" height="50" relative="1" as="geometry">
            <mxPoint x="523" y="960" as="sourcePoint" />
            <mxPoint x="523" y="120" as="targetPoint" />
          </mxGeometry>
        </mxCell>
        <mxCell id="0CfHc-AP87rfUvwyW7n0-18" value="" style="html=1;points=[[0,0,0,0,5],[0,1,0,0,-5],[1,0,0,0,5],[1,1,0,0,-5]];perimeter=orthogonalPerimeter;outlineConnect=0;targetShapes=umlLifeline;portConstraint=eastwest;newEdgeStyle={&quot;curved&quot;:0,&quot;rounded&quot;:0};" vertex="1" parent="1">
          <mxGeometry x="518" y="160" width="10" height="40" as="geometry" />
        </mxCell>
        <mxCell id="0CfHc-AP87rfUvwyW7n0-19" value="" style="endArrow=block;html=1;rounded=0;endFill=1;" edge="1" parent="1" target="0CfHc-AP87rfUvwyW7n0-18">
          <mxGeometry width="50" height="50" relative="1" as="geometry">
            <mxPoint x="373" y="160" as="sourcePoint" />
            <mxPoint x="423" y="140" as="targetPoint" />
          </mxGeometry>
        </mxCell>
        <mxCell id="0CfHc-AP87rfUvwyW7n0-20" value="ManMaintButton()" style="text;html=1;align=center;verticalAlign=middle;resizable=0;points=[];autosize=1;strokeColor=none;fillColor=none;" vertex="1" parent="1">
          <mxGeometry x="387" y="142" width="113" height="26" as="geometry" />
        </mxCell>
        <mxCell id="0CfHc-AP87rfUvwyW7n0-55" value="" style="endArrow=block;html=1;rounded=0;endFill=1;" edge="1" parent="1">
          <mxGeometry width="50" height="50" relative="1" as="geometry">
            <mxPoint x="763" y="382" as="sourcePoint" />
            <mxPoint x="763" y="402" as="targetPoint" />
            <Array as="points">
              <mxPoint x="803" y="382" />
              <mxPoint x="803" y="402" />
            </Array>
          </mxGeometry>
        </mxCell>
        <mxCell id="0CfHc-AP87rfUvwyW7n0-83" value="alternative" style="shape=umlFrame;whiteSpace=wrap;html=1;pointerEvents=0;" vertex="1" parent="1">
          <mxGeometry x="175" y="424" width="1150" height="310" as="geometry" />
        </mxCell>
        <mxCell id="0CfHc-AP87rfUvwyW7n0-84" value="" style="endArrow=none;dashed=1;html=1;dashPattern=1 3;strokeWidth=2;rounded=0;exitX=0.001;exitY=0.671;exitDx=0;exitDy=0;exitPerimeter=0;entryX=1.001;entryY=0.665;entryDx=0;entryDy=0;entryPerimeter=0;" edge="1" parent="1" source="0CfHc-AP87rfUvwyW7n0-83" target="0CfHc-AP87rfUvwyW7n0-83">
          <mxGeometry width="50" height="50" relative="1" as="geometry">
            <mxPoint x="172" y="586" as="sourcePoint" />
            <mxPoint x="1329" y="590" as="targetPoint" />
          </mxGeometry>
        </mxCell>
        <mxCell id="0CfHc-AP87rfUvwyW7n0-85" value="Βασική ροή" style="text;html=1;align=center;verticalAlign=middle;resizable=0;points=[];autosize=1;strokeColor=none;fillColor=none;" vertex="1" parent="1">
          <mxGeometry x="231" y="507" width="79" height="26" as="geometry" />
        </mxCell>
        <mxCell id="0CfHc-AP87rfUvwyW7n0-86" value="invalid information" style="text;html=1;align=center;verticalAlign=middle;resizable=0;points=[];autosize=1;strokeColor=none;fillColor=none;" vertex="1" parent="1">
          <mxGeometry x="213" y="671" width="115" height="26" as="geometry" />
        </mxCell>
        <mxCell id="0CfHc-AP87rfUvwyW7n0-93" value="" style="endArrow=none;dashed=1;html=1;dashPattern=1 3;strokeWidth=2;rounded=0;exitX=0.414;exitY=1.016;exitDx=0;exitDy=0;exitPerimeter=0;" edge="1" parent="1" source="0CfHc-AP87rfUvwyW7n0-112">
          <mxGeometry width="50" height="50" relative="1" as="geometry">
            <mxPoint x="648" y="780" as="sourcePoint" />
            <mxPoint x="648" y="120" as="targetPoint" />
          </mxGeometry>
        </mxCell>
        <mxCell id="0CfHc-AP87rfUvwyW7n0-94" value="" style="endArrow=none;dashed=1;html=1;dashPattern=1 3;strokeWidth=2;rounded=0;exitX=0.414;exitY=1.016;exitDx=0;exitDy=0;exitPerimeter=0;" edge="1" parent="1" source="0CfHc-AP87rfUvwyW7n0-118">
          <mxGeometry width="50" height="50" relative="1" as="geometry">
            <mxPoint x="758.38" y="794" as="sourcePoint" />
            <mxPoint x="757.38" y="120" as="targetPoint" />
          </mxGeometry>
        </mxCell>
        <mxCell id="0CfHc-AP87rfUvwyW7n0-95" value="" style="endArrow=none;dashed=1;html=1;dashPattern=1 3;strokeWidth=2;rounded=0;exitX=0.414;exitY=1.016;exitDx=0;exitDy=0;exitPerimeter=0;" edge="1" parent="1" source="0CfHc-AP87rfUvwyW7n0-98">
          <mxGeometry width="50" height="50" relative="1" as="geometry">
            <mxPoint x="1041" y="794" as="sourcePoint" />
            <mxPoint x="1040" y="120" as="targetPoint" />
          </mxGeometry>
        </mxCell>
        <mxCell id="0CfHc-AP87rfUvwyW7n0-96" value="" style="endArrow=none;dashed=1;html=1;dashPattern=1 3;strokeWidth=2;rounded=0;exitX=0.414;exitY=1.016;exitDx=0;exitDy=0;exitPerimeter=0;" edge="1" parent="1" source="0CfHc-AP87rfUvwyW7n0-103">
          <mxGeometry width="50" height="50" relative="1" as="geometry">
            <mxPoint x="1163" y="796" as="sourcePoint" />
            <mxPoint x="1162" y="122" as="targetPoint" />
          </mxGeometry>
        </mxCell>
        <mxCell id="0CfHc-AP87rfUvwyW7n0-97" value="" style="endArrow=none;dashed=1;html=1;dashPattern=1 3;strokeWidth=2;rounded=0;exitX=0.414;exitY=1.016;exitDx=0;exitDy=0;exitPerimeter=0;" edge="1" parent="1" source="0CfHc-AP87rfUvwyW7n0-146">
          <mxGeometry width="50" height="50" relative="1" as="geometry">
            <mxPoint x="1266" y="794" as="sourcePoint" />
            <mxPoint x="1265" y="120" as="targetPoint" />
          </mxGeometry>
        </mxCell>
        <mxCell id="0CfHc-AP87rfUvwyW7n0-99" value="" style="endArrow=none;dashed=1;html=1;dashPattern=1 3;strokeWidth=2;rounded=0;exitX=0.414;exitY=1.016;exitDx=0;exitDy=0;exitPerimeter=0;" edge="1" parent="1" source="0CfHc-AP87rfUvwyW7n0-125" target="0CfHc-AP87rfUvwyW7n0-98">
          <mxGeometry width="50" height="50" relative="1" as="geometry">
            <mxPoint x="1041" y="794" as="sourcePoint" />
            <mxPoint x="1040" y="120" as="targetPoint" />
          </mxGeometry>
        </mxCell>
        <mxCell id="0CfHc-AP87rfUvwyW7n0-98" value="" style="html=1;points=[[0,0,0,0,5],[0,1,0,0,-5],[1,0,0,0,5],[1,1,0,0,-5]];perimeter=orthogonalPerimeter;outlineConnect=0;targetShapes=umlLifeline;portConstraint=eastwest;newEdgeStyle={&quot;curved&quot;:0,&quot;rounded&quot;:0};" vertex="1" parent="1">
          <mxGeometry x="1035" y="200" width="10" height="82" as="geometry" />
        </mxCell>
        <mxCell id="0CfHc-AP87rfUvwyW7n0-101" value="" style="endArrow=block;html=1;rounded=0;endFill=1;" edge="1" parent="1" source="0CfHc-AP87rfUvwyW7n0-18" target="0CfHc-AP87rfUvwyW7n0-98">
          <mxGeometry width="50" height="50" relative="1" as="geometry">
            <mxPoint x="530" y="200" as="sourcePoint" />
            <mxPoint x="675" y="200" as="targetPoint" />
          </mxGeometry>
        </mxCell>
        <mxCell id="0CfHc-AP87rfUvwyW7n0-102" value="ManageMaint()" style="text;html=1;align=center;verticalAlign=middle;resizable=0;points=[];autosize=1;strokeColor=none;fillColor=none;" vertex="1" parent="1">
          <mxGeometry x="777" y="178" width="99" height="26" as="geometry" />
        </mxCell>
        <mxCell id="0CfHc-AP87rfUvwyW7n0-106" value="" style="endArrow=none;dashed=1;html=1;dashPattern=1 3;strokeWidth=2;rounded=0;exitX=0.414;exitY=1.016;exitDx=0;exitDy=0;exitPerimeter=0;" edge="1" parent="1" source="0CfHc-AP87rfUvwyW7n0-130" target="0CfHc-AP87rfUvwyW7n0-103">
          <mxGeometry width="50" height="50" relative="1" as="geometry">
            <mxPoint x="1163" y="796" as="sourcePoint" />
            <mxPoint x="1162" y="122" as="targetPoint" />
          </mxGeometry>
        </mxCell>
        <mxCell id="0CfHc-AP87rfUvwyW7n0-103" value="" style="html=1;points=[[0,0,0,0,5],[0,1,0,0,-5],[1,0,0,0,5],[1,1,0,0,-5]];perimeter=orthogonalPerimeter;outlineConnect=0;targetShapes=umlLifeline;portConstraint=eastwest;newEdgeStyle={&quot;curved&quot;:0,&quot;rounded&quot;:0};" vertex="1" parent="1">
          <mxGeometry x="1157" y="214" width="10" height="26" as="geometry" />
        </mxCell>
        <mxCell id="0CfHc-AP87rfUvwyW7n0-107" value="" style="endArrow=block;html=1;rounded=0;endFill=1;" edge="1" parent="1" target="0CfHc-AP87rfUvwyW7n0-103">
          <mxGeometry width="50" height="50" relative="1" as="geometry">
            <mxPoint x="1045" y="214" as="sourcePoint" />
            <mxPoint x="1552" y="214" as="targetPoint" />
          </mxGeometry>
        </mxCell>
        <mxCell id="0CfHc-AP87rfUvwyW7n0-108" value="QueryMaintenance()" style="text;html=1;align=center;verticalAlign=middle;resizable=0;points=[];autosize=1;strokeColor=none;fillColor=none;" vertex="1" parent="1">
          <mxGeometry x="1040" y="192" width="127" height="26" as="geometry" />
        </mxCell>
        <mxCell id="0CfHc-AP87rfUvwyW7n0-109" value="" style="endArrow=open;html=1;rounded=0;endFill=0;dashed=1;" edge="1" parent="1">
          <mxGeometry width="50" height="50" relative="1" as="geometry">
            <mxPoint x="1157" y="239.13" as="sourcePoint" />
            <mxPoint x="1045" y="239.13" as="targetPoint" />
          </mxGeometry>
        </mxCell>
        <mxCell id="0CfHc-AP87rfUvwyW7n0-110" value="return results" style="text;html=1;align=center;verticalAlign=middle;resizable=0;points=[];autosize=1;strokeColor=none;fillColor=none;" vertex="1" parent="1">
          <mxGeometry x="1057" y="218" width="88" height="26" as="geometry" />
        </mxCell>
        <mxCell id="0CfHc-AP87rfUvwyW7n0-111" value="" style="endArrow=block;html=1;rounded=0;endFill=1;" edge="1" parent="1" target="0CfHc-AP87rfUvwyW7n0-112">
          <mxGeometry width="50" height="50" relative="1" as="geometry">
            <mxPoint x="1035" y="282" as="sourcePoint" />
            <mxPoint x="810" y="276" as="targetPoint" />
          </mxGeometry>
        </mxCell>
        <mxCell id="0CfHc-AP87rfUvwyW7n0-114" value="" style="endArrow=none;dashed=1;html=1;dashPattern=1 3;strokeWidth=2;rounded=0;exitX=0.416;exitY=1;exitDx=0;exitDy=0;exitPerimeter=0;" edge="1" parent="1" source="0CfHc-AP87rfUvwyW7n0-83" target="0CfHc-AP87rfUvwyW7n0-112">
          <mxGeometry width="50" height="50" relative="1" as="geometry">
            <mxPoint x="649" y="794" as="sourcePoint" />
            <mxPoint x="648" y="120" as="targetPoint" />
          </mxGeometry>
        </mxCell>
        <mxCell id="0CfHc-AP87rfUvwyW7n0-112" value="" style="html=1;points=[[0,0,0,0,5],[0,1,0,0,-5],[1,0,0,0,5],[1,1,0,0,-5]];perimeter=orthogonalPerimeter;outlineConnect=0;targetShapes=umlLifeline;portConstraint=eastwest;newEdgeStyle={&quot;curved&quot;:0,&quot;rounded&quot;:0};" vertex="1" parent="1">
          <mxGeometry x="643" y="282" width="10" height="40" as="geometry" />
        </mxCell>
        <mxCell id="0CfHc-AP87rfUvwyW7n0-115" value="ShowResults()" style="text;html=1;align=center;verticalAlign=middle;resizable=0;points=[];autosize=1;strokeColor=none;fillColor=none;" vertex="1" parent="1">
          <mxGeometry x="784" y="263" width="96" height="26" as="geometry" />
        </mxCell>
        <mxCell id="0CfHc-AP87rfUvwyW7n0-116" value="" style="endArrow=block;html=1;rounded=0;endFill=1;" edge="1" parent="1" target="0CfHc-AP87rfUvwyW7n0-112">
          <mxGeometry width="50" height="50" relative="1" as="geometry">
            <mxPoint x="371" y="301.57" as="sourcePoint" />
            <mxPoint x="642" y="302" as="targetPoint" />
          </mxGeometry>
        </mxCell>
        <mxCell id="0CfHc-AP87rfUvwyW7n0-117" value="NewMaintButton()" style="text;html=1;align=center;verticalAlign=middle;resizable=0;points=[];autosize=1;strokeColor=none;fillColor=none;" vertex="1" parent="1">
          <mxGeometry x="396" y="282" width="114" height="26" as="geometry" />
        </mxCell>
        <mxCell id="0CfHc-AP87rfUvwyW7n0-119" value="" style="endArrow=none;dashed=1;html=1;dashPattern=1 3;strokeWidth=2;rounded=0;exitX=0.414;exitY=1.016;exitDx=0;exitDy=0;exitPerimeter=0;" edge="1" parent="1" source="0CfHc-AP87rfUvwyW7n0-150" target="0CfHc-AP87rfUvwyW7n0-118">
          <mxGeometry width="50" height="50" relative="1" as="geometry">
            <mxPoint x="758.38" y="794" as="sourcePoint" />
            <mxPoint x="757.38" y="120" as="targetPoint" />
          </mxGeometry>
        </mxCell>
        <mxCell id="0CfHc-AP87rfUvwyW7n0-118" value="" style="html=1;points=[[0,0,0,0,5],[0,1,0,0,-5],[1,0,0,0,5],[1,1,0,0,-5]];perimeter=orthogonalPerimeter;outlineConnect=0;targetShapes=umlLifeline;portConstraint=eastwest;newEdgeStyle={&quot;curved&quot;:0,&quot;rounded&quot;:0};" vertex="1" parent="1">
          <mxGeometry x="753" y="322" width="10" height="129" as="geometry" />
        </mxCell>
        <mxCell id="0CfHc-AP87rfUvwyW7n0-120" value="" style="endArrow=block;html=1;rounded=0;endFill=1;" edge="1" parent="1" source="0CfHc-AP87rfUvwyW7n0-112" target="0CfHc-AP87rfUvwyW7n0-118">
          <mxGeometry width="50" height="50" relative="1" as="geometry">
            <mxPoint x="653" y="321.13" as="sourcePoint" />
            <mxPoint x="753" y="321" as="targetPoint" />
          </mxGeometry>
        </mxCell>
        <mxCell id="0CfHc-AP87rfUvwyW7n0-121" value="display()" style="text;html=1;align=center;verticalAlign=middle;resizable=0;points=[];autosize=1;strokeColor=none;fillColor=none;" vertex="1" parent="1">
          <mxGeometry x="669" y="302" width="63" height="26" as="geometry" />
        </mxCell>
        <mxCell id="0CfHc-AP87rfUvwyW7n0-122" value="" style="endArrow=block;html=1;rounded=0;endFill=1;" edge="1" parent="1" target="0CfHc-AP87rfUvwyW7n0-118">
          <mxGeometry width="50" height="50" relative="1" as="geometry">
            <mxPoint x="371" y="368" as="sourcePoint" />
            <mxPoint x="751" y="368" as="targetPoint" />
          </mxGeometry>
        </mxCell>
        <mxCell id="0CfHc-AP87rfUvwyW7n0-123" value="FillForm()" style="text;html=1;align=center;verticalAlign=middle;resizable=0;points=[];autosize=1;strokeColor=none;fillColor=none;" vertex="1" parent="1">
          <mxGeometry x="418.5" y="348" width="69" height="26" as="geometry" />
        </mxCell>
        <mxCell id="0CfHc-AP87rfUvwyW7n0-124" value="Checkform()" style="text;html=1;align=center;verticalAlign=middle;resizable=0;points=[];autosize=1;strokeColor=none;fillColor=none;" vertex="1" parent="1">
          <mxGeometry x="796" y="382" width="84" height="26" as="geometry" />
        </mxCell>
        <mxCell id="0CfHc-AP87rfUvwyW7n0-127" value="" style="endArrow=none;dashed=1;html=1;dashPattern=1 3;strokeWidth=2;rounded=0;" edge="1" parent="1" target="0CfHc-AP87rfUvwyW7n0-125">
          <mxGeometry width="50" height="50" relative="1" as="geometry">
            <mxPoint x="1041" y="733" as="sourcePoint" />
            <mxPoint x="1041" y="282" as="targetPoint" />
          </mxGeometry>
        </mxCell>
        <mxCell id="0CfHc-AP87rfUvwyW7n0-125" value="" style="html=1;points=[[0,0,0,0,5],[0,1,0,0,-5],[1,0,0,0,5],[1,1,0,0,-5]];perimeter=orthogonalPerimeter;outlineConnect=0;targetShapes=umlLifeline;portConstraint=eastwest;newEdgeStyle={&quot;curved&quot;:0,&quot;rounded&quot;:0};" vertex="1" parent="1">
          <mxGeometry x="1035" y="451" width="10" height="151" as="geometry" />
        </mxCell>
        <mxCell id="0CfHc-AP87rfUvwyW7n0-128" value="" style="endArrow=block;html=1;rounded=0;endFill=1;" edge="1" parent="1" target="0CfHc-AP87rfUvwyW7n0-125">
          <mxGeometry width="50" height="50" relative="1" as="geometry">
            <mxPoint x="763" y="451" as="sourcePoint" />
            <mxPoint x="1032" y="451" as="targetPoint" />
          </mxGeometry>
        </mxCell>
        <mxCell id="0CfHc-AP87rfUvwyW7n0-129" value="SendMaintInfo()" style="text;html=1;align=center;verticalAlign=middle;resizable=0;points=[];autosize=1;strokeColor=none;fillColor=none;" vertex="1" parent="1">
          <mxGeometry x="851" y="432" width="103" height="26" as="geometry" />
        </mxCell>
        <mxCell id="0CfHc-AP87rfUvwyW7n0-131" value="" style="endArrow=none;dashed=1;html=1;dashPattern=1 3;strokeWidth=2;rounded=0;" edge="1" parent="1" target="0CfHc-AP87rfUvwyW7n0-130">
          <mxGeometry width="50" height="50" relative="1" as="geometry">
            <mxPoint x="1164" y="735" as="sourcePoint" />
            <mxPoint x="1163" y="240" as="targetPoint" />
          </mxGeometry>
        </mxCell>
        <mxCell id="0CfHc-AP87rfUvwyW7n0-130" value="" style="html=1;points=[[0,0,0,0,5],[0,1,0,0,-5],[1,0,0,0,5],[1,1,0,0,-5]];perimeter=orthogonalPerimeter;outlineConnect=0;targetShapes=umlLifeline;portConstraint=eastwest;newEdgeStyle={&quot;curved&quot;:0,&quot;rounded&quot;:0};" vertex="1" parent="1">
          <mxGeometry x="1159" y="466" width="10" height="26" as="geometry" />
        </mxCell>
        <mxCell id="0CfHc-AP87rfUvwyW7n0-132" value="" style="endArrow=block;html=1;rounded=0;endFill=1;" edge="1" parent="1" target="0CfHc-AP87rfUvwyW7n0-130">
          <mxGeometry width="50" height="50" relative="1" as="geometry">
            <mxPoint x="1045" y="466" as="sourcePoint" />
            <mxPoint x="1317" y="466" as="targetPoint" />
          </mxGeometry>
        </mxCell>
        <mxCell id="0CfHc-AP87rfUvwyW7n0-133" value="AddMaintenance()" style="text;html=1;align=center;verticalAlign=middle;resizable=0;points=[];autosize=1;strokeColor=none;fillColor=none;" vertex="1" parent="1">
          <mxGeometry x="1041" y="444" width="116" height="26" as="geometry" />
        </mxCell>
        <mxCell id="0CfHc-AP87rfUvwyW7n0-134" value="Notification" style="html=1;whiteSpace=wrap;" vertex="1" parent="1">
          <mxGeometry x="858" y="475.5" width="70" height="30" as="geometry" />
        </mxCell>
        <mxCell id="0CfHc-AP87rfUvwyW7n0-135" value="" style="endArrow=block;html=1;rounded=0;endFill=0;dashed=1;dashPattern=8 8;" edge="1" parent="1">
          <mxGeometry width="50" height="50" relative="1" as="geometry">
            <mxPoint x="1035" y="492" as="sourcePoint" />
            <mxPoint x="928" y="492" as="targetPoint" />
          </mxGeometry>
        </mxCell>
        <mxCell id="0CfHc-AP87rfUvwyW7n0-136" value="createNotif()" style="text;html=1;align=center;verticalAlign=middle;resizable=0;points=[];autosize=1;strokeColor=none;fillColor=none;" vertex="1" parent="1">
          <mxGeometry x="944" y="470" width="84" height="26" as="geometry" />
        </mxCell>
        <mxCell id="0CfHc-AP87rfUvwyW7n0-137" value="" style="endArrow=block;html=1;rounded=0;endFill=1;" edge="1" parent="1">
          <mxGeometry width="50" height="50" relative="1" as="geometry">
            <mxPoint x="888" y="522" as="sourcePoint" />
            <mxPoint x="888" y="542" as="targetPoint" />
            <Array as="points">
              <mxPoint x="848" y="522" />
              <mxPoint x="848" y="542" />
            </Array>
          </mxGeometry>
        </mxCell>
        <mxCell id="0CfHc-AP87rfUvwyW7n0-138" value="" style="endArrow=none;dashed=1;html=1;dashPattern=1 3;strokeWidth=2;rounded=0;exitX=0.414;exitY=1.016;exitDx=0;exitDy=0;exitPerimeter=0;" edge="1" parent="1" source="0CfHc-AP87rfUvwyW7n0-139">
          <mxGeometry width="50" height="50" relative="1" as="geometry">
            <mxPoint x="893.17" y="844" as="sourcePoint" />
            <mxPoint x="892.79" y="501" as="targetPoint" />
          </mxGeometry>
        </mxCell>
        <mxCell id="0CfHc-AP87rfUvwyW7n0-140" value="addNotifToList()" style="text;html=1;align=center;verticalAlign=middle;resizable=0;points=[];autosize=1;strokeColor=none;fillColor=none;" vertex="1" parent="1">
          <mxGeometry x="753" y="520" width="102" height="26" as="geometry" />
        </mxCell>
        <mxCell id="0CfHc-AP87rfUvwyW7n0-141" value="" style="endArrow=none;dashed=1;html=1;dashPattern=1 3;strokeWidth=2;rounded=0;" edge="1" parent="1" target="0CfHc-AP87rfUvwyW7n0-139">
          <mxGeometry width="50" height="50" relative="1" as="geometry">
            <mxPoint x="893" y="734" as="sourcePoint" />
            <mxPoint x="892.79" y="501" as="targetPoint" />
          </mxGeometry>
        </mxCell>
        <mxCell id="0CfHc-AP87rfUvwyW7n0-139" value="" style="html=1;points=[[0,0,0,0,5],[0,1,0,0,-5],[1,0,0,0,5],[1,1,0,0,-5]];perimeter=orthogonalPerimeter;outlineConnect=0;targetShapes=umlLifeline;portConstraint=eastwest;newEdgeStyle={&quot;curved&quot;:0,&quot;rounded&quot;:0};" vertex="1" parent="1">
          <mxGeometry x="888" y="515" width="10" height="79" as="geometry" />
        </mxCell>
        <mxCell id="0CfHc-AP87rfUvwyW7n0-142" value="" style="endArrow=block;html=1;rounded=0;endFill=1;" edge="1" parent="1" target="0CfHc-AP87rfUvwyW7n0-139">
          <mxGeometry width="50" height="50" relative="1" as="geometry">
            <mxPoint x="1035" y="559" as="sourcePoint" />
            <mxPoint x="916" y="559" as="targetPoint" />
          </mxGeometry>
        </mxCell>
        <mxCell id="0CfHc-AP87rfUvwyW7n0-143" value="&lt;div&gt;QueryN&lt;span style=&quot;background-color: transparent; color: light-dark(rgb(0, 0, 0), rgb(255, 255, 255));&quot;&gt;otification()&lt;/span&gt;&lt;/div&gt;" style="text;html=1;align=center;verticalAlign=middle;resizable=0;points=[];autosize=1;strokeColor=none;fillColor=none;" vertex="1" parent="1">
          <mxGeometry x="910" y="538" width="118" height="26" as="geometry" />
        </mxCell>
        <mxCell id="0CfHc-AP87rfUvwyW7n0-144" value="" style="endArrow=open;html=1;rounded=0;endFill=0;dashed=1;" edge="1" parent="1">
          <mxGeometry width="50" height="50" relative="1" as="geometry">
            <mxPoint x="898.0000000000005" y="586" as="sourcePoint" />
            <mxPoint x="1035.0000000000005" y="585.9999999999999" as="targetPoint" />
          </mxGeometry>
        </mxCell>
        <mxCell id="0CfHc-AP87rfUvwyW7n0-145" value="return results" style="text;html=1;align=center;verticalAlign=middle;resizable=0;points=[];autosize=1;strokeColor=none;fillColor=none;" vertex="1" parent="1">
          <mxGeometry x="925" y="568" width="88" height="26" as="geometry" />
        </mxCell>
        <mxCell id="0CfHc-AP87rfUvwyW7n0-147" value="" style="endArrow=none;dashed=1;html=1;dashPattern=1 3;strokeWidth=2;rounded=0;exitX=0.95;exitY=0.996;exitDx=0;exitDy=0;exitPerimeter=0;" edge="1" parent="1" source="0CfHc-AP87rfUvwyW7n0-83" target="0CfHc-AP87rfUvwyW7n0-146">
          <mxGeometry width="50" height="50" relative="1" as="geometry">
            <mxPoint x="1266" y="794" as="sourcePoint" />
            <mxPoint x="1265" y="120" as="targetPoint" />
          </mxGeometry>
        </mxCell>
        <mxCell id="0CfHc-AP87rfUvwyW7n0-146" value="" style="html=1;points=[[0,0,0,0,5],[0,1,0,0,-5],[1,0,0,0,5],[1,1,0,0,-5]];perimeter=orthogonalPerimeter;outlineConnect=0;targetShapes=umlLifeline;portConstraint=eastwest;newEdgeStyle={&quot;curved&quot;:0,&quot;rounded&quot;:0};" vertex="1" parent="1">
          <mxGeometry x="1260" y="600" width="10" height="23" as="geometry" />
        </mxCell>
        <mxCell id="0CfHc-AP87rfUvwyW7n0-148" value="" style="endArrow=block;html=1;rounded=0;endFill=1;" edge="1" parent="1" source="0CfHc-AP87rfUvwyW7n0-125" target="0CfHc-AP87rfUvwyW7n0-146">
          <mxGeometry width="50" height="50" relative="1" as="geometry">
            <mxPoint x="1057" y="606" as="sourcePoint" />
            <mxPoint x="1171" y="606" as="targetPoint" />
          </mxGeometry>
        </mxCell>
        <mxCell id="0CfHc-AP87rfUvwyW7n0-149" value="ShowResults()" style="text;html=1;align=center;verticalAlign=middle;resizable=0;points=[];autosize=1;strokeColor=none;fillColor=none;" vertex="1" parent="1">
          <mxGeometry x="1123" y="580" width="96" height="26" as="geometry" />
        </mxCell>
        <mxCell id="0CfHc-AP87rfUvwyW7n0-151" value="" style="endArrow=none;dashed=1;html=1;dashPattern=1 3;strokeWidth=2;rounded=0;" edge="1" parent="1" target="0CfHc-AP87rfUvwyW7n0-150">
          <mxGeometry width="50" height="50" relative="1" as="geometry">
            <mxPoint x="758" y="733" as="sourcePoint" />
            <mxPoint x="758" y="451" as="targetPoint" />
          </mxGeometry>
        </mxCell>
        <mxCell id="0CfHc-AP87rfUvwyW7n0-150" value="" style="html=1;points=[[0,0,0,0,5],[0,1,0,0,-5],[1,0,0,0,5],[1,1,0,0,-5]];perimeter=orthogonalPerimeter;outlineConnect=0;targetShapes=umlLifeline;portConstraint=eastwest;newEdgeStyle={&quot;curved&quot;:0,&quot;rounded&quot;:0};" vertex="1" parent="1">
          <mxGeometry x="753" y="657" width="10" height="40" as="geometry" />
        </mxCell>
        <mxCell id="0CfHc-AP87rfUvwyW7n0-152" value="" style="endArrow=block;html=1;rounded=0;endFill=1;" edge="1" parent="1">
          <mxGeometry width="50" height="50" relative="1" as="geometry">
            <mxPoint x="763" y="667" as="sourcePoint" />
            <mxPoint x="763" y="687" as="targetPoint" />
            <Array as="points">
              <mxPoint x="803" y="667" />
              <mxPoint x="803" y="687" />
            </Array>
          </mxGeometry>
        </mxCell>
        <mxCell id="0CfHc-AP87rfUvwyW7n0-153" value="ErrorMessage()" style="text;html=1;align=center;verticalAlign=middle;resizable=0;points=[];autosize=1;strokeColor=none;fillColor=none;" vertex="1" parent="1">
          <mxGeometry x="797" y="664" width="101" height="26" as="geometry" />
        </mxCell>
      </root>
    </mxGraphModel>
  </diagram>
</mxfile>
